<svg width="1080" height="1080" viewBox="0 0 1080 1080" fill="none" xmlns="http://www.w3.org/2000/svg">
<path d="M370.764 189.542C377.4 196.114 384.391 202.299 392.167 207.47C431.832 233.853 549.847 297.332 737.022 271.388C970.89 238.973 936.58 474.115 902.928 536.784C869.276 599.454 745.512 714.336 735.117 771.897C724.722 829.457 769.204 986.671 664.979 939.495C560.755 892.319 500.545 781.825 363.743 794.667C226.94 807.51 130.272 746.888 190.83 638.58C251.387 530.271 323.788 460.38 231.377 339.737C141.531 222.45 292.867 112.396 370.764 189.542Z" fill="#DEE9FF"/>
<path d="M608.067 311.051C606.333 309.305 605.34 306.956 605.298 304.495C605.255 302.035 606.165 299.653 607.838 297.847L669.546 231.244C670.42 230.3 671.476 229.543 672.65 229.019C673.824 228.494 675.092 228.212 676.378 228.189C677.664 228.167 678.941 228.405 680.132 228.889C681.324 229.373 682.405 230.093 683.311 231.005L688.638 236.369C689.545 237.282 690.257 238.369 690.733 239.564C691.208 240.758 691.437 242.037 691.406 243.323C691.374 244.609 691.083 245.875 690.55 247.045C690.017 248.216 689.253 249.266 688.303 250.134L621.27 311.373C619.453 313.033 617.064 313.927 614.604 313.867C612.143 313.807 609.801 312.798 608.067 311.051V311.051Z" fill="#418DF9"/>
<path d="M569.008 288.349C567.533 287.695 566.368 286.496 565.755 285.003C565.143 283.51 565.132 281.838 565.724 280.337L587.562 224.952C587.872 224.167 588.336 223.453 588.929 222.853C589.521 222.253 590.229 221.778 591.009 221.459C591.789 221.139 592.626 220.98 593.469 220.992C594.313 221.004 595.145 221.186 595.916 221.528L600.447 223.537C601.218 223.878 601.912 224.372 602.487 224.989C603.062 225.606 603.507 226.333 603.794 227.126C604.081 227.918 604.205 228.761 604.158 229.603C604.111 230.445 603.894 231.269 603.52 232.025L577.152 285.401C576.437 286.848 575.191 287.963 573.673 288.513C572.155 289.062 570.484 289.003 569.008 288.349Z" fill="#418DF9"/>
<path d="M529.269 297.401C524.236 298.307 519.187 293.989 517.821 287.612L493.601 174.383C492.156 167.616 495.396 161.18 500.735 160.218L508.175 158.879C513.513 157.917 518.798 162.821 519.8 169.665L536.583 284.233C537.528 290.688 534.302 296.495 529.269 297.401Z" fill="#418DF9"/>
<path d="M920.746 403.961L813.927 390.191C812.128 389.999 810.314 390.36 808.726 391.226C807.138 392.092 805.851 393.421 805.038 395.037L776.634 451.121L657.735 688.915C656.471 691.427 654.354 693.406 651.763 694.498C649.172 695.59 646.277 695.723 643.596 694.873L320.868 591.86C319.978 591.576 319.033 591.507 318.111 591.66C317.189 591.812 316.317 592.181 315.565 592.736C314.814 593.292 314.205 594.018 313.789 594.854C313.373 595.691 313.161 596.614 313.171 597.549L313.319 610.95C313.337 612.814 313.943 614.624 315.05 616.123C316.157 617.622 317.708 618.733 319.483 619.299L660.938 728.286C664.745 729.501 668.163 731.701 670.845 734.662C673.528 737.623 675.38 741.241 676.214 745.149L676.328 745.682C679.298 761.997 663.221 775.39 647.377 770.581L272.96 650.917C271.039 650.306 269.385 649.058 268.27 647.379C267.156 645.7 266.648 643.69 266.831 641.683L296.134 321.697C296.281 320.047 296.774 318.446 297.58 316.999C298.386 315.552 299.487 314.291 300.812 313.297C302.137 312.303 303.657 311.599 305.271 311.23C306.886 310.862 308.561 310.837 310.186 311.157L758.73 398.904L787.62 341.489C788.454 339.866 789.766 338.538 791.379 337.685C792.992 336.832 794.827 336.493 796.638 336.716L927.445 353.467C928.605 353.613 929.725 353.987 930.74 354.569C931.755 355.15 932.644 355.927 933.356 356.855C934.068 357.782 934.59 358.842 934.89 359.972C935.19 361.102 935.263 362.281 935.104 363.44L930.644 396.341C930.335 398.661 929.12 400.764 927.266 402.192C925.412 403.619 923.068 404.256 920.746 403.961V403.961Z" fill="#699CFF"/>
<path d="M314.221 537.074L350.771 548.74L385.83 370.958L329.72 362.342L314.221 537.074Z" fill="#DEE9FF"/>
<path d="M600.992 628.607L637.542 640.273L732.063 441.197L691.805 431.445L600.992 628.607Z" fill="#DEE9FF"/>
<path d="M460.418 583.738L494.156 594.507L566.424 406.915L511.211 395.488L460.418 583.738Z" fill="#DEE9FF"/>
<path d="M417.654 378.018L472.867 389.445L423.869 572.072L387.32 560.406L417.654 378.018Z" fill="#DEE9FF"/>
<path d="M657.169 423.488L601.956 412.06L533.517 607.069L567.255 617.838L657.169 423.488Z" fill="#DEE9FF"/>
<path d="M321.274 766.444C344.908 766.444 364.067 747.285 364.067 723.651C364.067 700.018 344.908 680.859 321.274 680.859C297.64 680.859 278.481 700.018 278.481 723.651C278.481 747.285 297.64 766.444 321.274 766.444Z" fill="#A2BDFF"/>
<path d="M588.365 851.695C611.999 851.695 631.158 832.536 631.158 808.903C631.158 785.269 611.999 766.11 588.365 766.11C564.731 766.11 545.572 785.269 545.572 808.903C545.572 832.536 564.731 851.695 588.365 851.695Z" fill="#A2BDFF"/>
<path d="M939.962 351.697L827.227 337.583C826.602 337.505 826.032 337.948 825.954 338.573L819.121 393.153C819.042 393.778 819.486 394.348 820.111 394.427L932.845 408.54C933.47 408.619 934.04 408.176 934.119 407.551L940.952 352.97C941.03 352.345 940.587 351.775 939.962 351.697Z" fill="#A2BDFF"/>
</svg>
