<svg width="512" height="512" viewBox="0 0 512 512" fill="none" xmlns="http://www.w3.org/2000/svg">
  <!-- YTL Cement Brand Colors: Navy Blue #003366 and White -->
  <rect width="512" height="512" fill="#003366"/>
  
  <!-- YTL Text -->
  <text x="256" y="224" 
        font-family="system-ui, -apple-system, sans-serif" 
        font-size="112" 
        font-weight="bold" 
        text-anchor="middle" 
        fill="white">YTL</text>
  
  <!-- Cement/Building Material Symbol -->
  <rect x="96" y="288" width="320" height="32" fill="white"/>
  <rect x="128" y="320" width="256" height="24" fill="white" opacity="0.8"/>
  <rect x="160" y="352" width="192" height="16" fill="white" opacity="0.6"/>
  
  <!-- Small decorative elements -->
  <circle cx="128" cy="128" r="16" fill="white" opacity="0.7"/>
  <circle cx="384" cy="128" r="16" fill="white" opacity="0.7"/>
  <circle cx="128" cy="416" r="16" fill="white" opacity="0.7"/>
  <circle cx="384" cy="416" r="16" fill="white" opacity="0.7"/>
  
  <!-- Additional building material elements -->
  <rect x="192" y="384" width="128" height="8" fill="white" opacity="0.4"/>
  <rect x="224" y="400" width="64" height="5" fill="white" opacity="0.3"/>
  
  <!-- Subtle texture lines -->
  <rect x="64" y="64" width="384" height="2" fill="white" opacity="0.2"/>
  <rect x="64" y="80" width="384" height="2" fill="white" opacity="0.2"/>
  <rect x="64" y="96" width="384" height="2" fill="white" opacity="0.2"/>
  <rect x="64" y="440" width="384" height="2" fill="white" opacity="0.2"/>
  <rect x="64" y="456" width="384" height="2" fill="white" opacity="0.2"/>
  <rect x="64" y="472" width="384" height="2" fill="white" opacity="0.2"/>
</svg>
