<?xml version="1.0" encoding="UTF-8"?>
<svg version="1.1" xmlns="http://www.w3.org/2000/svg" width="512" height="512">
<path d="M0 0 C1.09119141 0.00902344 2.18238281 0.01804688 3.30664062 0.02734375 C24.11826643 0.47040616 42.45482596 8.72726425 58.75 21.4375 C59.27851563 22.03949219 59.80703125 22.64148438 60.3515625 23.26171875 C61.67477883 24.63488331 61.67477883 24.63488331 63.546875 24.41015625 C66.69933776 23.01837748 69.27904066 20.95325526 72 18.875 C88.474772 6.75888722 106.29095699 0.28401519 126.8125 0.1875 C127.88177734 0.166875 128.95105469 0.14625 130.05273438 0.125 C140.74180825 0.07333076 150.38641922 2.16851669 159.875 7.125 C160.55240234 7.47312744 161.22980469 7.82125488 161.92773438 8.17993164 C179.73040973 17.61373733 190.487266 32.57813057 196.75 51.4375 C204.26356887 77.69415645 197.3260011 102.11729627 184.75 125.4375 C183.7545299 127.10687625 182.75512925 128.77392164 181.75 130.4375 C182.53989822 130.42861755 183.32979645 130.41973511 184.14363098 130.4105835 C191.63068749 130.33004245 199.11753045 130.26933673 206.60490894 130.23025131 C210.45318575 130.2094807 214.30110108 130.18135928 218.14916992 130.13574219 C221.87098877 130.09190377 225.59246254 130.068284 229.31451988 130.05799103 C230.72614655 130.05066706 232.13775687 130.03636733 233.54923439 130.01457977 C243.98592759 129.86005919 253.7046731 130.4462843 261.75 137.75 C267.9358141 144.81102521 268.49476765 151.20457763 267.96588516 160.41668701 C267.27140147 166.91746568 264.95415259 173.15537102 262.94921875 179.34375 C262.43856941 180.97105164 261.92976203 182.59893227 261.4226532 184.2273407 C260.06431334 188.57275648 258.68239194 192.91031868 257.2955246 197.24670029 C255.85401793 201.76732328 254.43362092 206.29456028 253.01220703 210.8215332 C251.27980315 216.33592094 249.54608486 221.849862 247.80310059 227.36091614 C244.1536126 238.90759434 240.58927353 250.47653725 237.10546875 262.07421875 C236.67161443 263.5144194 236.23761073 264.95457506 235.80345154 266.39468384 C233.37622943 274.44696238 233.37622943 274.44696238 230.9727478 282.50634766 C221.09543518 315.73848795 221.09543518 315.73848795 209.75 328.4375 C209.14542969 329.12328125 208.54085938 329.8090625 207.91796875 330.515625 C195.74224998 343.5096711 178.33484088 350.69937701 160.67714691 351.59301376 C153.01418761 351.79240754 145.35040952 351.75069793 137.68581772 351.695364 C133.29774275 351.66431019 128.90992635 351.66205774 124.52175903 351.66487122 C112.05664344 351.66916134 99.5918609 351.64543972 87.12695312 351.5715332 C80.21507505 351.53079506 73.30374859 351.51854842 66.39177048 351.53777009 C62.03111682 351.54831161 57.67252673 351.52387325 53.31217456 351.47339761 C49.9707506 351.44513174 46.63007238 351.46909873 43.28857422 351.48510742 C42.08646805 351.46098282 40.88436188 351.43685822 39.64582825 351.41200256 C33.75061853 351.31003532 33.75061853 351.31003532 28.93863297 354.21108437 C27.67236294 356.23995743 26.71627001 358.2551086 25.75 360.4375 C23.7578125 362.4609375 23.7578125 362.4609375 21.875 363.8125 C21.25882812 364.27398437 20.64265625 364.73546875 20.0078125 365.2109375 C13.39924994 368.80105626 6.86905585 368.71730754 -0.47436523 368.67700195 C-1.58419769 368.67901611 -2.69403015 368.68103027 -3.8374939 368.68310547 C-6.23936654 368.68664189 -8.64124852 368.68589512 -11.04311943 368.68132973 C-14.84754508 368.67572385 -18.6516673 368.68491605 -22.45606995 368.6985321 C-33.26997086 368.73561016 -44.08374633 368.75446784 -54.89770508 368.74291992 C-61.51948752 368.73602324 -68.14090148 368.75534989 -74.76262093 368.78880882 C-77.28193019 368.79675468 -79.80128623 368.79549701 -82.32058525 368.78478432 C-85.84627642 368.77043504 -89.37062302 368.78675262 -92.89624023 368.80981445 C-93.93181564 368.79804672 -94.96739105 368.78627899 -96.03434753 368.77415466 C-102.63432139 368.85863598 -107.19381502 370.05602009 -112.25 374.4375 C-116.78831116 380.25584764 -118.0929469 385.20220579 -117.25 392.4375 C-115.53816913 397.74045434 -113.01165056 401.41791672 -108.25 404.4375 C-102.66307246 407.03143064 -97.31306068 407.47323967 -91.25 406.4375 C-88.99362669 404.99580968 -87.35984356 403.35952976 -85.48828125 401.44921875 C-74.54203234 391.61096711 -58.57396021 388.56813095 -44.3046875 389.08984375 C-33.67282451 389.80118422 -19.31629843 393.24161208 -11.60454559 401.11810493 C-7.0363284 405.76030939 -3.79126415 407.24891435 2.70069885 407.38619995 C3.69730026 407.37203033 4.69390167 407.35786072 5.72070312 407.34326172 C6.79166733 407.35552795 7.86263153 407.36779419 8.96604919 407.38043213 C12.48860256 407.41111636 16.00867383 407.39089026 19.53125 407.3671875 C21.98930328 407.37190603 24.44735338 407.37870228 26.90539551 407.38748169 C32.05004053 407.39778693 37.19383319 407.38284979 42.33837891 407.35009766 C48.92282203 407.31021476 55.50526786 407.3331863 62.08963776 407.3751049 C67.16333991 407.40043715 72.2365709 407.39233219 77.31028748 407.37421036 C79.73750548 407.36955102 82.16476668 407.37523527 84.5919342 407.39156723 C87.98886905 407.40941005 91.38259987 407.38216562 94.77929688 407.34326172 C95.77589828 407.35743134 96.77249969 407.37160095 97.79930115 407.38619995 C104.27170573 407.24932795 107.51059391 405.78373456 112.05495453 401.14290047 C120.92653306 392.21712565 136.05468717 389.40277779 148.0625 389 C165.30201763 389.40877207 180.76135539 395.42386236 193.0546875 407.578125 C204.98448417 420.23408321 211.15192205 436.11930435 210.84765625 453.50048828 C210.19550536 466.8532777 205.70279354 478.66101796 197.75 489.4375 C197.28980469 490.08074219 196.82960938 490.72398437 196.35546875 491.38671875 C189.9326627 499.6234585 180.29259935 505.47642102 170.75 509.4375 C169.61304688 509.91703125 169.61304688 509.91703125 168.453125 510.40625 C153.40011115 515.58371973 134.73833655 513.67391717 120.5859375 506.9296875 C104.27190882 498.04989974 94.49842395 485.00442558 88.4375 467.6875 C87.75 464.4375 87.75 464.4375 87.75 457.4375 C63 457.4375 38.25 457.4375 12.75 457.4375 C12.42 460.7375 12.09 464.0375 11.75 467.4375 C9.37423663 476.15517716 5.31644612 483.3858362 -0.25 490.4375 C-0.72179687 491.07300781 -1.19359375 491.70851563 -1.6796875 492.36328125 C-9.89094853 502.82452059 -24.15317288 510.53940911 -37.25 512.4375 C-57.74145107 514.00642212 -74.52739292 510.81409594 -90.5625 497.125 C-100.24111383 487.95823594 -106.44010051 477.11001517 -108.5 463.9375 C-109.21222488 459.39275711 -109.21222488 459.39275711 -112.01171875 456.05859375 C-114.40911378 455.30537269 -116.77780921 454.88533427 -119.25 454.4375 C-139.02392017 447.46954718 -153.23918841 435.24267202 -162.25 416.4375 C-169.42504856 400.62661455 -170.0282525 383.0261502 -165.25 366.4375 C-161.10665422 355.4275512 -154.88291116 345.45377465 -146.25 337.4375 C-145.66476563 336.88191406 -145.07953125 336.32632812 -144.4765625 335.75390625 C-143.49816406 334.85478516 -143.49816406 334.85478516 -142.5 333.9375 C-141.61054688 333.11765625 -141.61054688 333.11765625 -140.703125 332.28125 C-138.39813687 330.54883854 -136.12044894 329.20690829 -133.59667969 327.82226562 C-132.37691437 327.15112732 -132.37691437 327.15112732 -131.13250732 326.46643066 C-130.51127991 326.12688354 -129.89005249 325.78733643 -129.25 325.4375 C-136.32375873 294.95449122 -143.57898685 264.51976026 -150.9956665 234.11843872 C-152.67036196 227.25339641 -154.34117553 220.38741272 -156.01123047 213.52124023 C-156.43599891 211.77495347 -156.43599891 211.77495347 -156.86934853 209.99338818 C-157.44335799 207.63352926 -158.01735866 205.2736682 -158.59135056 202.91380501 C-159.73649733 198.20616441 -160.88203682 193.49861943 -162.02759743 188.79107952 C-163.43521465 183.00658943 -164.84262392 177.22204876 -166.25 171.4375 C-166.52163971 170.32106361 -166.79327942 169.20462723 -167.07315063 168.05435944 C-170.14694108 155.4203485 -173.21783303 142.78564548 -176.2788105 130.14852333 C-177.43690069 125.36770263 -178.59659499 120.58728538 -179.76043701 115.80786133 C-180.83722723 111.38587162 -181.90982573 106.96288755 -182.97904205 102.53906059 C-183.36849359 100.93098314 -183.75950193 99.32328181 -184.15218353 97.71599007 C-184.68396815 95.53830092 -185.21013266 93.35932946 -185.73486328 91.17993164 C-186.17682541 89.3590377 -186.17682541 89.3590377 -186.62771606 87.50135803 C-187.25 84.4375 -187.25 84.4375 -187.25 80.4375 C-188.32894531 80.45321045 -189.40789062 80.4689209 -190.51953125 80.48510742 C-194.55249459 80.53972899 -198.58542573 80.5739664 -202.61865234 80.60229492 C-204.35861728 80.61730854 -206.09854484 80.63772577 -207.83837891 80.66381836 C-210.3506802 80.70053107 -212.8624778 80.71730069 -215.375 80.73046875 C-216.14303955 80.74595261 -216.9110791 80.76143646 -217.70239258 80.77738953 C-225.46041761 80.77976456 -232.18564936 78.42374386 -238.25 73.4375 C-244.26508234 65.40655223 -245.01237465 58.38151712 -244.25 48.4375 C-242.61872021 41.91238083 -237.88057284 36.92898551 -232.25 33.4375 C-225.83564095 30.69114245 -220.02051218 30.00214548 -213.09765625 30.07421875 C-212.15748154 30.07372025 -211.21730682 30.07322174 -210.24864197 30.07270813 C-208.2729174 30.07503424 -206.29718904 30.08467547 -204.3215332 30.10131836 C-201.32410715 30.12490865 -198.32757358 30.12186763 -195.33007812 30.11523438 C-193.39843228 30.1208128 -191.46679013 30.1279237 -189.53515625 30.13671875 C-188.6525563 30.13580734 -187.76995636 30.13489594 -186.86061096 30.13395691 C-173.37449148 30.28499506 -161.0029222 34.03272088 -150.99609375 43.45703125 C-142.1799155 53.45658913 -139.46210369 66.05114159 -136.45703125 78.65625 C-136.14283153 79.95876914 -135.82817604 81.26117843 -135.51306152 82.56347656 C-134.35737009 87.35349304 -133.21044914 92.14562216 -132.0625 96.9375 C-129.484375 107.6625 -126.90625 118.3875 -124.25 129.4375 C-89.6 129.9325 -89.6 129.9325 -54.25 130.4375 C-57.22 125.1575 -60.19 119.8775 -63.25 114.4375 C-73.06002287 93.94545222 -75.91563332 70.16015146 -68.54980469 48.36572266 C-61.29348113 28.77364906 -48.64041544 14.77590299 -29.8125 5.6875 C-20.05011985 1.5377785 -10.57501288 -0.10594878 0 0 Z M-120.25 147.4375 C-119.04544018 154.45540412 -117.62484186 161.36225412 -115.8671875 168.26171875 C-115.67261963 169.03696899 -115.47805176 169.81221924 -115.27758789 170.61096191 C-114.56397471 173.44996184 -113.84414624 176.2873966 -113.125 179.125 C-111.51625 185.498125 -109.9075 191.87125 -108.25 198.4375 C-83.17 198.4375 -58.09 198.4375 -32.25 198.4375 C-31.9715625 188.599375 -31.9715625 188.599375 -31.6875 178.5625 C-31.60556396 176.51305176 -31.52362793 174.46360352 -31.43920898 172.35205078 C-31.41288118 170.69569164 -31.38995718 169.03927346 -31.37109375 167.3828125 C-31.32505005 166.5487085 -31.27900635 165.71460449 -31.23156738 164.85522461 C-31.22299243 158.3020549 -33.54866601 154.00642238 -38.15660095 149.38064575 C-44.5882321 145.34056022 -52.08424689 146.23151352 -59.41015625 146.4609375 C-61.16845152 146.47961523 -62.92679924 146.49383735 -64.68516541 146.5038147 C-69.2880612 146.54179235 -73.88774398 146.6398295 -78.48937988 146.75085449 C-83.19495176 146.85360512 -87.90104881 146.89891911 -92.60742188 146.94921875 C-101.82301766 147.05610255 -111.03624052 147.22651212 -120.25 147.4375 Z M160.96707153 153.84216309 C158.9509454 158.1414392 158.74566269 161.81182679 158.96875 166.50390625 C158.97680664 167.32048706 158.98486328 168.13706787 158.99316406 168.97839355 C159.03456492 171.98652921 159.14625579 174.99336878 159.25 178 C159.415 184.744375 159.58 191.48875 159.75 198.4375 C185.82 198.4375 211.89 198.4375 238.75 198.4375 C241.72 189.0015625 241.72 189.0015625 244.75 179.375 C245.37648438 177.40265381 246.00296875 175.43030762 246.6484375 173.39819336 C247.14141179 171.8164885 247.63364826 170.23455341 248.125 168.65234375 C248.38410156 167.84607544 248.64320313 167.03980713 248.91015625 166.20910645 C250.36031783 161.50111658 251.20641088 157.42355115 250.75 152.4375 C248.88291495 150.07252561 247.42938569 148.77719285 244.75 147.4375 C242.35217958 147.298085 239.98143621 147.21728923 237.58154297 147.18115234 C236.84307632 147.16654968 236.10460968 147.15194702 235.34376526 147.13690186 C228.52373113 147.01078741 221.7025313 146.9421172 214.88157463 146.88905907 C210.30071649 146.85332189 205.72161815 146.80008417 201.14160156 146.70361328 C196.71057477 146.61056479 192.28110386 146.56210283 187.84915543 146.54466629 C186.16416464 146.53060822 184.479226 146.50104933 182.79479599 146.45536423 C170.24139586 146.05677689 170.24139586 146.05677689 160.96707153 153.84216309 Z M138.20605469 177.74072266 C132.10190186 183.55635122 125.64780881 188.68170449 118.83178711 193.63964844 C117.12344978 194.88608732 115.43456326 196.15911316 113.75 197.4375 C113.75 197.7675 113.75 198.0975 113.75 198.4375 C123.32 198.4375 132.89 198.4375 142.75 198.4375 C142.75 190.5175 142.75 182.5975 142.75 174.4375 C140.75062926 174.4375 139.57513426 176.43589417 138.20605469 177.74072266 Z M-15.25 175.4375 C-15.25 183.0275 -15.25 190.6175 -15.25 198.4375 C-6.01 198.4375 3.23 198.4375 12.75 198.4375 C8.81828828 194.46799057 8.81828828 194.46799057 4.69921875 190.7890625 C4.16917236 190.34409424 3.63912598 189.89912598 3.09301758 189.44067383 C2.27353638 188.75847778 2.27353638 188.75847778 1.4375 188.0625 C-3.03933216 184.31606165 -7.4525519 180.52210458 -11.76171875 176.58203125 C-13.20132037 175.2342966 -13.20132037 175.2342966 -15.25 175.4375 Z M-104.25 214.4375 C-101.69258658 226.58521373 -99.05868025 238.60940255 -96 250.625 C-94.7625 255.513125 -93.525 260.40125 -92.25 265.4375 C-72.45 265.4375 -52.65 265.4375 -32.25 265.4375 C-32.25 248.6075 -32.25 231.7775 -32.25 214.4375 C-56.01 214.4375 -79.77 214.4375 -104.25 214.4375 Z M-15.25 214.4375 C-15.25 231.2675 -15.25 248.0975 -15.25 265.4375 C7.85 265.4375 30.95 265.4375 54.75 265.4375 C55.306875 255.8778125 55.306875 255.8778125 55.875 246.125 C56.03887207 244.13686279 56.20274414 242.14872559 56.37158203 240.1003418 C56.6606631 234.27935246 56.84792977 228.40576106 53.36224365 223.47402954 C45.22802991 215.27283418 34.72635683 213.5825781 23.6171875 213.36328125 C18.94109287 213.37424578 14.30294614 213.56635124 9.625 213.75 C-2.688125 214.0903125 -2.688125 214.0903125 -15.25 214.4375 Z M73.12969971 224.3951416 C68.69773241 230.95574721 69.98966079 239.21711033 70.625 246.6875 C70.99625 252.875 71.3675 259.0625 71.75 265.4375 C95.18 265.4375 118.61 265.4375 142.75 265.4375 C142.75 248.6075 142.75 231.7775 142.75 214.4375 C134.37625 214.19 126.0025 213.9425 117.375 213.6875 C113.47034912 213.52362793 113.47034912 213.52362793 109.48681641 213.35644531 C95.90307134 213.01250788 82.90737451 213.83677912 73.12969971 224.3951416 Z M159.75 214.4375 C159.75 231.2675 159.75 248.0975 159.75 265.4375 C178.89 265.4375 198.03 265.4375 217.75 265.4375 C223.83467273 246.52615656 223.83467273 246.52615656 229.75 227.5625 C230.04777344 226.6034375 230.34554687 225.644375 230.65234375 224.65625 C231.07193359 223.28339844 231.07193359 223.28339844 231.5 221.8828125 C231.86351562 220.69969482 231.86351562 220.69969482 232.234375 219.49267578 C232.87167444 217.30567584 232.87167444 217.30567584 232.75 214.4375 C208.66 214.4375 184.57 214.4375 159.75 214.4375 Z M-87.25 282.4375 C-86.39000279 290.19878957 -86.39000279 290.19878957 -84.875 297.71484375 C-84.48054687 299.34969727 -84.48054687 299.34969727 -84.078125 301.01757812 C-83.80484375 302.12552734 -83.5315625 303.23347656 -83.25 304.375 C-82.97671875 305.51001953 -82.7034375 306.64503906 -82.421875 307.81445312 C-81.23111373 313.2642697 -81.23111373 313.2642697 -79.25 318.4375 C-63.74 318.4375 -48.23 318.4375 -32.25 318.4375 C-32.25 306.5575 -32.25 294.6775 -32.25 282.4375 C-50.4 282.4375 -68.55 282.4375 -87.25 282.4375 Z M-15.25 282.4375 C-15.25 294.3175 -15.25 306.1975 -15.25 318.4375 C-6.81502562 318.60734473 -6.81502562 318.60734473 1.62060547 318.73535156 C9.56666779 318.96241606 17.576304 319.60573775 23.68701172 325.21582031 C26.34686423 328.1457297 27.96179586 330.86109172 29.75 334.4375 C38 334.4375 46.25 334.4375 54.75 334.4375 C54.75 317.2775 54.75 300.1175 54.75 282.4375 C31.65 282.4375 8.55 282.4375 -15.25 282.4375 Z M71.75 282.4375 C71.75 299.5975 71.75 316.7575 71.75 334.4375 C95.18 334.4375 118.61 334.4375 142.75 334.4375 C142.75 317.2775 142.75 300.1175 142.75 282.4375 C119.32 282.4375 95.89 282.4375 71.75 282.4375 Z M159.75 282.4375 C159.75 299.5975 159.75 316.7575 159.75 334.4375 C177.45332293 331.71391186 190.14809322 326.68990289 201.07421875 312.03125 C206.4394063 303.72709025 211.75 292.41704828 211.75 282.4375 C194.59 282.4375 177.43 282.4375 159.75 282.4375 Z " fill="#010001" transform="translate(244.25,-0.4375)"/>
<path d="M0 0 C4.57831068 3.36808392 8.84816122 7.01048561 13.01953125 10.8671875 C13.61121094 11.40601562 14.20289063 11.94484375 14.8125 12.5 C15.53373047 13.19609375 15.53373047 13.19609375 16.26953125 13.90625 C18.89147386 15.56345978 20.90787716 15.89938023 24 16 C26.69186515 14.48422982 26.69186515 14.48422982 29.125 12.125 C30.0840625 11.29355469 31.043125 10.46210937 32.03125 9.60546875 C33.0109375 8.74566406 33.990625 7.88585937 35 7 C52.22120461 -7.39131565 71.4558961 -14.81172421 94 -13 C108.66655294 -10.83519514 121.19394334 -2.54770496 130.3125 8.9375 C140.18447651 23.15983904 142.61553653 39.54992327 140.71875 56.515625 C140.28885792 58.74775696 139.69583723 60.83557998 139 63 C138.69320312 64.01964844 138.38640625 65.03929688 138.0703125 66.08984375 C133.34253372 80.58293111 125.56161295 93.18298997 116 105 C115.20335937 106.0003125 114.40671875 107.000625 113.5859375 108.03125 C103.52749717 120.42351145 92.15296317 132.13519874 79.578125 141.98046875 C76.79423539 144.16118228 74.12313649 146.44959825 71.4375 148.75 C58.97454719 159.13579401 45.52139881 168.24656099 31.77929688 176.84423828 C30.08002262 177.94802044 28.45107708 179.15787711 26.828125 180.37109375 C24 182 24 182 21.63671875 182.046875 C17.76851511 180.51105489 14.33766277 178.45027959 10.8125 176.25 C9.63034912 175.51789307 9.63034912 175.51789307 8.42431641 174.77099609 C-5.43265986 166.06946425 -18.36614508 156.17506733 -30.92675781 145.70898438 C-32.44593596 144.45671788 -33.97852376 143.22067165 -35.51855469 141.99414062 C-42.53366979 136.37505591 -49.03555175 130.36692278 -55.375 124 C-55.87446136 123.49966248 -56.37392273 122.99932495 -56.88851929 122.48382568 C-78.38805272 100.86037439 -97.31044579 75.39046092 -97.24438477 43.81616211 C-97.02219895 27.78538266 -92.43849094 13.81112681 -81.23046875 1.99609375 C-57.4612602 -19.27547467 -25.38348121 -16.60423207 0 0 Z " fill="#FD636E" transform="translate(286,29)"/>
<path d="M0 0 C1.01242264 -0.00478363 2.02484528 -0.00956726 3.06794739 -0.01449585 C5.2088069 -0.01789406 7.34971836 -0.00869726 9.49047852 0.01220703 C12.74159966 0.03883374 15.98922435 0.01252756 19.24023438 -0.01953125 C21.32683045 -0.01622443 23.41342437 -0.00981257 25.5 0 C26.4607695 -0.01012115 27.421539 -0.02024231 28.41142273 -0.03067017 C37.21345288 0.1194541 44.2289654 2.99559679 50.45703125 9.2890625 C56.82531832 17.2891769 58.53634805 27.9788965 60.73129272 37.73867798 C61.57029857 41.46493172 62.43402988 45.18545644 63.296875 48.90625 C63.47843643 49.69077042 63.65999786 50.47529083 63.84706116 51.28358459 C66.03977425 60.70973533 68.4057129 70.09216175 70.76953125 79.4765625 C71.62301053 82.87093946 72.47578001 86.26549429 73.328125 89.66015625 C73.5286145 90.45853409 73.729104 91.25691193 73.93566895 92.07948303 C76.70402017 103.11863836 79.34157273 114.18623456 81.859375 125.28515625 C85.35718142 140.66487134 89.12766713 155.96436223 92.97265625 171.26025391 C95.71098014 182.15639939 98.38023839 193.06464524 100.95166016 204.00146484 C102.2677012 209.56023465 103.61495096 215.11153423 104.95703125 220.6640625 C105.25158203 221.88416016 105.54613281 223.10425781 105.84960938 224.36132812 C107.37694267 230.686012 108.90843999 237.00965848 110.4453125 243.33203125 C110.74856445 244.58242188 111.05181641 245.8328125 111.36425781 247.12109375 C111.96188671 249.58381478 112.56145708 252.04606558 113.16308594 254.5078125 C114.43858383 259.76037362 115.67974703 265.00682146 116.734375 270.30859375 C116.90300049 271.14173096 117.07162598 271.97486816 117.24536133 272.83325195 C117.53972129 274.3193728 117.81858302 275.80870656 118.0769043 277.30151367 C119.05216946 282.21957517 120.61683984 284.62198486 124.58203125 287.6640625 C127.78241038 288.37841883 130.90627062 288.31405786 134.17407227 288.26000977 C135.13398071 288.2640683 136.09388916 288.26812683 137.08288574 288.27230835 C139.16286289 288.27782096 141.24289535 288.27183012 143.32281685 288.25564766 C146.61379753 288.23025378 149.9035242 288.23501686 153.19456482 288.24754333 C160.17802468 288.26829715 167.1610969 288.24859453 174.14453125 288.2265625 C182.24022322 288.20547491 190.33551296 288.20084726 198.43119621 288.22706413 C201.67540863 288.23043187 204.91885744 288.20918001 208.16297913 288.18666077 C210.14844938 288.18917144 212.13391868 288.19273089 214.11938477 288.19750977 C215.02287155 288.18462418 215.92635834 288.17173859 216.85722351 288.15846252 C222.968815 288.20762595 222.968815 288.20762595 226.14024353 290.56822205 C227.69803912 292.8326962 228.12455377 293.94262129 228.08203125 296.6640625 C228.09234375 297.3240625 228.10265625 297.9840625 228.11328125 298.6640625 C227.27858277 301.80645679 226.25408362 302.74319007 223.58203125 304.6640625 C219.95058624 305.26688767 216.343141 305.17563069 212.66992188 305.13061523 C211.5571991 305.13292145 210.44447632 305.13522766 209.29803467 305.13760376 C206.87973926 305.14023546 204.46142094 305.13377526 202.04316711 305.11935234 C198.20833729 305.0974855 194.37429739 305.10117858 190.53942871 305.11183167 C181.0082371 305.13351733 171.47721455 305.11673124 161.94604492 305.09033203 C153.90313792 305.06856295 145.86084141 305.06707504 137.81791687 305.09324837 C134.05328865 305.09758143 130.28955226 305.0730033 126.52502441 305.04771423 C124.19311129 305.05298992 121.86120084 305.05971569 119.52929688 305.06811523 C118.4940387 305.05320541 117.45878052 305.03829559 116.39215088 305.02293396 C106.43468132 305.11886843 97.12806911 308.59006122 89.33203125 314.859375 C85.98962318 318.30623332 83.71000934 322.38777532 81.58203125 326.6640625 C81.02128906 327.77394531 81.02128906 327.77394531 80.44921875 328.90625 C77.68637148 337.69260213 78.21703762 349.1506159 82.14453125 357.4140625 C87.74893613 366.75040289 94.49666543 371.56945894 104.58203125 375.6640625 C106.23787313 376.04756811 107.90305743 376.39960875 109.58203125 376.6640625 C109.29199219 377.51677734 109.29199219 377.51677734 108.99609375 378.38671875 C107.40066702 383.11771188 105.91302539 387.85200675 104.58203125 392.6640625 C91.99244907 391.08012374 82.12489919 384.93584409 73.58203125 375.6640625 C63.61973046 362.61001318 60.1852442 348.93780212 61.58203125 332.6640625 C63.90556787 320.08057202 70.33704272 307.56499766 80.58203125 299.6640625 C86.86580298 295.49249881 93.33063764 291.8460928 100.58203125 289.6640625 C101.73271251 283.15055559 101.36764589 278.21063677 99.45703125 271.9140625 C98.98198004 270.23505078 98.50940944 268.55533562 98.0390625 266.875 C97.67288818 265.58480957 97.67288818 265.58480957 97.29931641 264.26855469 C96.13784506 260.05120401 95.14008784 255.79810215 94.14453125 251.5390625 C93.72666549 249.76560073 93.30869457 247.99216374 92.890625 246.21875 C92.57134033 244.86088379 92.57134033 244.86088379 92.24560547 243.47558594 C91.07957353 238.53517981 89.89290059 233.59973783 88.70703125 228.6640625 C88.33288086 227.10582764 88.33288086 227.10582764 87.95117188 225.51611328 C85.13489158 213.79290094 82.30411037 202.07318851 79.47314453 190.35351562 C78.0087523 184.2905306 76.54544063 178.22728481 75.08203125 172.1640625 C74.49870322 169.74739455 73.91536989 167.33072789 73.33203125 164.9140625 C55.83203125 92.4140625 55.83203125 92.4140625 54.95654297 88.78662109 C54.37509197 86.37803094 53.7933876 83.96950194 53.21142578 81.56103516 C51.7221739 75.39628327 50.23778923 69.2304223 48.76171875 63.0625 C47.31311212 57.01344624 45.85058733 50.96794009 44.37548828 44.92529297 C43.86420292 42.82383146 43.35704563 40.72135916 42.85498047 38.61767578 C42.21501935 35.94209853 41.55768315 33.27146973 40.89453125 30.6015625 C40.71647949 29.84020996 40.53842773 29.07885742 40.35498047 28.29443359 C39.26767794 24.01771033 38.06837852 21.42150876 34.58203125 18.6640625 C32.29622104 17.52115739 31.02623661 17.53966619 28.48706055 17.53808594 C27.22015633 17.53237579 27.22015633 17.53237579 25.92765808 17.52655029 C25.01309341 17.52552307 24.09852875 17.52449585 23.15625 17.5234375 C21.22589966 17.50510907 19.29556079 17.48553872 17.36523438 17.46484375 C14.31694227 17.43587086 11.26938603 17.41406248 8.22094727 17.41357422 C5.28204809 17.41023916 2.34485327 17.37568463 -0.59375 17.3359375 C-1.50224197 17.3430072 -2.41073395 17.3500769 -3.34675598 17.35736084 C-7.84850663 17.27083516 -9.81778583 17.12362297 -13.49291992 14.30957031 C-15.41796875 11.6640625 -15.41796875 11.6640625 -16.04296875 8.6640625 C-14.22016087 -0.08541531 -7.44339416 -0.07759447 0 0 Z " fill="#AAD1F6" transform="translate(31.41796875,46.3359375)"/>
<path d="M0 0 C1.21913086 -0.0309375 1.21913086 -0.0309375 2.46289062 -0.0625 C12.73781968 -0.12789334 20.36189123 3.69078118 28.8125 9.25 C30.1428125 10.11625 30.1428125 10.11625 31.5 11 C41.18036568 20.41873418 45.99432961 31.90477143 46.1875 45.25 C46.24648178 58.6230388 41.19503696 68.79334118 31.8671875 78.21484375 C27.57645587 82.194287 23.24289631 85.07784148 17.8125 87.25 C17.07515625 87.5490625 16.3378125 87.848125 15.578125 88.15625 C4.021019 92.23522859 -8.05837739 91.11362685 -19.1875 86.25 C-22.79954484 84.20620992 -25.99446388 81.89485116 -29.1875 79.25 C-30.14076172 78.49976563 -30.14076172 78.49976563 -31.11328125 77.734375 C-38.28290446 71.43909608 -43.57721019 60.85393451 -44.33837891 51.37011719 C-44.93761235 40.98499573 -44.43820263 32.50453656 -39.1875 23.25 C-38.50107422 22.02023437 -38.50107422 22.02023437 -37.80078125 20.765625 C-31.75978874 10.90142902 -22.43645082 3.96700515 -11.28100586 0.68994141 C-7.55064459 -0.09397825 -3.79893065 0.02354101 0 0 Z " fill="#7E8FA2" transform="translate(195.1875,405.75)"/>
<path d="M0 0 C9.71143498 6.91702562 17.83531153 17.11250686 20.125 29.0625 C21.1126551 43.80135308 18.62260557 56.8030089 9 68.1875 C1.16534788 76.57624758 -9.43239862 82.41224914 -20.96875 83.30078125 C-34.23809624 83.58990691 -44.61480608 80.58244902 -54.875 72.0625 C-55.84566406 71.27746094 -55.84566406 71.27746094 -56.8359375 70.4765625 C-64.065147 64.00499941 -69.07194588 53.63287418 -70.09399414 43.99804688 C-70.91227405 28.81459832 -68.1306091 17.75717325 -57.875 6.0625 C-41.78784777 -9.30000573 -18.83276847 -11.90895653 0 0 Z " fill="#7E8FA2" transform="translate(417.875,412.9375)"/>
<path d="M0 0 C4.90617069 3.70869301 7.5521298 9.47925959 10.25 14.875 C11.06233257 26.39414218 10.44160831 34.78464897 3.125 44.125 C-2.57032078 50.12007451 -8.31944325 53.00658118 -16.65478516 53.46459961 C-26.41364154 53.62948357 -33.41661702 51.1790368 -40.625 44.5625 C-47.0525151 37.61957096 -49.13845903 30.03429902 -49.02734375 20.75 C-48.30641387 13.27669872 -43.98201771 6.15135684 -38.75 0.875 C-25.9942556 -8.40924434 -13.39028789 -8.25147127 0 0 Z " fill="#020203" transform="translate(214.75,427.125)"/>
<path d="M0 0 C1.051875 0.556875 2.10375 1.11375 3.1875 1.6875 C9.55726128 6.92485927 13.50736794 14.11377735 14.3359375 22.33203125 C14.45662682 33.08544979 12.50790109 40.32063043 5.01953125 48.203125 C-2.16960827 54.59965146 -9.75512482 55.99014464 -19.15234375 55.48046875 C-27.13155341 54.48408013 -33.10297485 50.81560258 -38.53125 44.96484375 C-44.03173642 37.60648027 -45.91942582 29.02591263 -45 20 C-42.59195047 10.73932954 -37.93635738 4.62778355 -29.875 -0.375 C-20.2422097 -5.9866255 -9.58686524 -5.49187689 0 0 Z " fill="#020202" transform="translate(408,425)"/>
<path d="M0 0 C2.78462746 2.01329873 3.84045197 3.75691541 4.6015625 7.078125 C3.63412477 11.29967147 2.50325392 12.61495442 -1.0859375 15.078125 C-3.82936643 15.50678577 -6.52888 15.64764748 -9.30078125 15.796875 C-13.5179509 16.22273224 -16.7661778 17.42833948 -20.0859375 20.078125 C-26.50762741 28.0211629 -26.92760293 36.21032337 -26.0859375 46.078125 C-23.33539047 56.29091845 -17.24941383 66.26417795 -10.6484375 74.453125 C-8.71394174 76.96484933 -8.08772786 78.06982425 -7.3984375 81.265625 C-8.35430175 85.17597874 -9.86987998 86.70103901 -13.0859375 89.078125 C-16.0859375 89.703125 -16.0859375 89.703125 -19.0859375 89.078125 C-21.20661577 87.45971264 -22.45936242 86.14419251 -24.0859375 84.078125 C-24.68277344 83.3459375 -25.27960938 82.61375 -25.89453125 81.859375 C-38.04832693 66.12814628 -44.82702488 49.06979316 -43.0859375 29.078125 C-40.95183119 18.85880451 -34.81251953 9.8470945 -26.0859375 4.078125 C-18.28654326 -0.21210783 -8.69997573 -3.84493309 0 0 Z " fill="#040101" transform="translate(251.0859375,35.921875)"/>
<path d="M0 0 C7.45123961 2.50448764 13.1023903 5.81892232 19 11 C19.92619141 11.78503906 19.92619141 11.78503906 20.87109375 12.5859375 C31.15568055 21.9772083 35.37894986 34.52950368 37 48 C37.3674185 56.45917007 37.61623296 64.86213852 35 73 C34.69320312 74.01964844 34.38640625 75.03929688 34.0703125 76.08984375 C29.34253372 90.58293111 21.56161295 103.18298997 12 115 C11.20335937 116.0003125 10.40671875 117.000625 9.5859375 118.03125 C-0.47250283 130.42351145 -11.84703683 142.13519874 -24.421875 151.98046875 C-27.20576461 154.16118228 -29.87686351 156.44959825 -32.5625 158.75 C-45.02652813 169.13669011 -58.48207655 178.23340664 -72.21679688 186.84423828 C-73.39171076 187.60574462 -74.54557678 188.40090662 -75.67382812 189.22998047 C-79.52971072 192.04950413 -79.52971072 192.04950413 -82.375 191.75 C-83.179375 191.37875 -83.179375 191.37875 -84 191 C-81.7925526 189.37378525 -79.58418375 187.74885367 -77.375 186.125 C-76.69493896 185.62468262 -76.01487793 185.12436523 -75.31420898 184.60888672 C-72.04564367 182.2101968 -68.77055741 179.82521925 -65.44921875 177.5 C-53.46421368 169.10774207 -42.04808767 160.00036187 -31.27734375 150.08984375 C-29.74719236 148.68567395 -28.19711965 147.30293584 -26.62890625 145.94140625 C-4.30038289 126.47093388 21.47121822 96.62888281 24.28613281 65.8737793 C24.40061088 62.59796446 24.40976431 59.34000154 24.375 56.0625 C24.38660156 54.97259766 24.39820313 53.88269531 24.41015625 52.75976562 C24.37234515 42.15375217 22.2870144 32.39522268 17.4375 22.9375 C16.92956909 21.93178955 16.92956909 21.93178955 16.41137695 20.90576172 C12.45187232 13.44008316 7.07809084 6.71872723 0 2 C0 1.34 0 0.68 0 0 Z " fill="#F84653" transform="translate(390,19)"/>
<path d="M0 0 C28.38 0 56.76 0 86 0 C84.92185661 5.39071693 83.44648114 10.69623582 82 16 C56.59 16 31.18 16 5 16 C3.35 10.72 1.7 5.44 0 0 Z " fill="#ACD4F9" transform="translate(251,424)"/>
<path d="M0 0 C1.01242264 -0.00478363 2.02484528 -0.00956726 3.06794739 -0.01449585 C5.2088069 -0.01789406 7.34971836 -0.00869726 9.49047852 0.01220703 C12.74159966 0.03883374 15.98922435 0.01252756 19.24023438 -0.01953125 C21.32683045 -0.01622443 23.41342437 -0.00981257 25.5 0 C26.4607695 -0.01012115 27.421539 -0.02024231 28.41142273 -0.03067017 C36.26818966 0.10333203 42.83176142 2.26954539 48.7318573 7.60995483 C53.34153356 12.4231687 56.58203125 17.82791829 56.58203125 24.6640625 C48.16703125 25.1590625 48.16703125 25.1590625 39.58203125 25.6640625 C38.59203125 23.6840625 37.60203125 21.7040625 36.58203125 19.6640625 C33.82968558 17.71176918 31.58789969 17.41665668 28.26000977 17.42456055 C27.41555801 17.42082932 26.57110626 17.41709808 25.70106506 17.41325378 C24.34470192 17.41945488 24.34470192 17.41945488 22.9609375 17.42578125 C21.03710229 17.41036493 19.11327403 17.39406154 17.18945312 17.37695312 C14.16317417 17.36048592 11.13740417 17.35157913 8.11108398 17.35864258 C5.18545139 17.36126177 2.26136375 17.33315248 -0.6640625 17.30078125 C-1.56628036 17.31098801 -2.46849823 17.32119476 -3.39805603 17.33171082 C-7.88643464 17.26187696 -9.82308105 17.11979463 -13.48852539 14.31176758 C-15.41796875 11.6640625 -15.41796875 11.6640625 -16.04296875 8.6640625 C-14.22016087 -0.08541531 -7.44339416 -0.07759447 0 0 Z " fill="#7F90A3" transform="translate(31.41796875,46.3359375)"/>
<path d="M0 0 C4.62994259 1.72488057 7.62722164 3.61948611 10 8 C10.83709908 12.66177592 11.11183604 17.00636297 8.75390625 21.234375 C5.83897644 24.7526444 3.66422411 26.69044253 -1.05078125 27.23828125 C-6.54775239 27.41866545 -9.7545588 26.84111347 -14 23 C-16.910372 18.634442 -17.6506249 15.20499921 -17 10 C-13.30090764 2.74408806 -8.25966171 -1.03245771 0 0 Z " fill="#CCCCD1" transform="translate(396,437)"/>
<path d="M0 0 C4.62994259 1.72488057 7.62722164 3.61948611 10 8 C10.83709908 12.66177592 11.11183604 17.00636297 8.75390625 21.234375 C5.83897644 24.7526444 3.66422411 26.69044253 -1.05078125 27.23828125 C-6.54775239 27.41866545 -9.7545588 26.84111347 -14 23 C-16.910372 18.634442 -17.6506249 15.20499921 -17 10 C-13.30090764 2.74408806 -8.25966171 -1.03245771 0 0 Z " fill="#CCCCD1" transform="translate(199,437)"/>
</svg>
